<?xml version="1.0" encoding="UTF-8"?>
<svg xmlns="http://www.w3.org/2000/svg" xmlns:xlink="http://www.w3.org/1999/xlink" viewBox="0 0 10 10" width="100px" height="100px">
<g id="surface2877887">
<path style=" stroke:none;fill-rule:nonzero;fill:rgb(50.196081%,58.823532%,21.960784%);fill-opacity:1;" d="M 5.660156 0.265625 C 5.445312 0.222656 5.226562 0.199219 5 0.199219 C 4.058594 0.199219 3.203125 0.585938 2.589844 1.207031 L 3.972656 2.328125 Z M 3.71875 2.636719 L 2.324219 1.511719 C 1.871094 2.085938 1.601562 2.8125 1.601562 3.601562 C 1.601562 4.054688 1.691406 4.496094 1.859375 4.90625 Z M 4.523438 2.285156 C 4.671875 2.230469 4.832031 2.199219 5 2.199219 C 5.773438 2.199219 6.398438 2.824219 6.398438 3.601562 C 6.398438 3.667969 6.394531 3.734375 6.382812 3.796875 L 7.9375 1.898438 C 7.527344 1.191406 6.871094 0.644531 6.082031 0.378906 Z M 5.46875 4.917969 C 5.320312 4.96875 5.164062 5 5 5 C 4.226562 5 3.601562 4.375 3.601562 3.601562 C 3.601562 3.527344 3.605469 3.460938 3.617188 3.390625 L 2.054688 5.300781 C 2.132812 5.433594 2.21875 5.5625 2.3125 5.6875 C 2.386719 5.785156 2.488281 5.914062 2.605469 6.0625 C 2.855469 6.390625 3.195312 6.828125 3.523438 7.296875 Z M 3.753906 7.644531 C 4.171875 8.28125 4.527344 8.941406 4.589844 9.453125 C 4.617188 9.652344 4.789062 9.800781 4.988281 9.800781 C 5.191406 9.800781 5.363281 9.648438 5.386719 9.449219 C 5.507812 8.484375 6.699219 6.953125 7.34375 6.128906 C 7.453125 5.984375 7.550781 5.859375 7.640625 5.742188 C 8.128906 5.136719 8.398438 4.378906 8.398438 3.601562 C 8.398438 3.136719 8.304688 2.691406 8.136719 2.289062 Z M 3.753906 7.644531 "/>
</g>
</svg>
