<svg id="Capa_1" data-name="Capa 1" xmlns="http://www.w3.org/2000/svg" xmlns:xlink="http://www.w3.org/1999/xlink" viewBox="0 0 209.07 80.57"><defs><clipPath id="clip-path" transform="translate(-82.17 -93)"><rect x="82.19" y="92.86" width="47.23" height="66.75" style="fill:none"/></clipPath></defs><g style="clip-path:url(#clip-path)"><path d="M129.38,115.51a22.91,22.91,0,0,0-.85-5.28l-.18-.59a22.9,22.9,0,0,0-1.87-4.45l-.33-.56a23.31,23.31,0,0,0-3.66-4.72,20.54,20.54,0,0,0-1.7-1.54,23.36,23.36,0,0,0-5.8-3.52l-.59-.25h0l-.8-.29c-.39-.14-.77-.26-1.17-.37l-.36-.1-.32-.09c-.67-.17-1.34-.31-2-.43l-.59-.1a24,24,0,0,0-5.36-.13,21.73,21.73,0,0,0-2.55.36l-.48.1a23.63,23.63,0,0,0-5.58,2l-.21.11-.52.29a24,24,0,0,0-4.21,2.92l-.49.46a24.63,24.63,0,0,0-3,3.42h0l-.43.62a23.48,23.48,0,0,0-3,6.3,23.09,23.09,0,0,0-1,6.91v42.95h47.25V116.56C129.42,116.21,129.39,115.85,129.38,115.51Zm-45.46,2.76a8.86,8.86,0,0,0,1.55-.17,8.33,8.33,0,0,0,1.49-.47,8.65,8.65,0,0,0,1.37-.75,8.09,8.09,0,0,0,1.2-1,7.63,7.63,0,0,0,1-1.21,7.82,7.82,0,0,0,.73-1.37,8,8,0,0,0,.45-1.49,7.71,7.71,0,0,0-.09-3.51,8.19,8.19,0,0,0-.73-1.85,7.88,7.88,0,0,0-1.15-1.61,7.76,7.76,0,0,0-1.52-1.28l.13-.17a3.4,3.4,0,0,0,.23-.3l.5-.61.29-.33.49-.54.32-.33.23-.22a11,11,0,0,1,2,1.8,11.2,11.2,0,0,1,1.52,2.22,11.34,11.34,0,0,1,.94,2.51,11.59,11.59,0,0,1,.1,4.86,11.65,11.65,0,0,1-1.68,4.05,11.4,11.4,0,0,1-1.4,1.7,11.92,11.92,0,0,1-1.69,1.41,11.42,11.42,0,0,1-2,1,11.12,11.12,0,0,1-2.1.66,10.81,10.81,0,0,1-2.2.23Zm0-2.71c0-.19,0-.39,0-.6a1.51,1.51,0,0,1,0-.3,4.28,4.28,0,0,1,0-.49c0-.11,0-.22,0-.33s0-.29.06-.45l.05-.34c0-.15,0-.29.08-.44s0-.23.07-.34,0-.29.09-.43,0-.23.07-.34.07-.29.11-.42.06-.23.09-.34l.12-.42c0-.11.06-.22.1-.34s.09-.27.13-.41l.12-.33.15-.41a2.63,2.63,0,0,1,.13-.32c0-.11.11-.28.17-.41s.08-.21.13-.32.12-.27.19-.41l.14-.29c.07-.15.14-.3.21-.43l.14-.28.26-.45a1.71,1.71,0,0,1,.13-.23l.34-.59.06-.1a6.11,6.11,0,0,1,2.14,2.26,6.21,6.21,0,0,1,.77,3,7,7,0,0,1-.12,1.21,5.78,5.78,0,0,1-.36,1.16,5.58,5.58,0,0,1-.57,1.08,5.75,5.75,0,0,1-.77.94,6.3,6.3,0,0,1-.93.78,6.58,6.58,0,0,1-1.07.59,5.87,5.87,0,0,1-1.17.36,6.06,6.06,0,0,1-1.21.14v-1Zm13-5.29a13.06,13.06,0,0,0-.34-3,12.46,12.46,0,0,0-1-2.83,12.65,12.65,0,0,0-1.65-2.51,12.21,12.21,0,0,0-2.18-2.07l.11-.1c.27-.22.54-.44.82-.65l.16-.11c.29-.21.56-.41.84-.59l.15-.09c.29-.19.58-.39.91-.57h0A16.75,16.75,0,0,1,99,103.39a16.56,16.56,0,0,1,1.5,6.88c0,.54,0,1.08-.08,1.62a14.72,14.72,0,0,1-.24,1.6c-.11.53-.23,1.06-.39,1.57s-.34,1-.55,1.53-.44,1-.69,1.46a16,16,0,0,1-.84,1.39c-.3.45-.62.89-1,1.31s-.71.82-1.09,1.2a13.72,13.72,0,0,1-1.2,1.09,15.13,15.13,0,0,1-1.3,1c-.45.3-.92.58-1.39.84s-1,.49-1.47.7-1,.39-1.53.55a13.88,13.88,0,0,1-1.57.4c-.53.11-1.06.19-1.6.25a14.7,14.7,0,0,1-1.63.09v-3.55a13.52,13.52,0,0,0,2.54-.27,13.12,13.12,0,0,0,2.43-.75,12.88,12.88,0,0,0,5.81-4.8,12.07,12.07,0,0,0,1.2-2.24,12.37,12.37,0,0,0,.74-2.43A12.71,12.71,0,0,0,96.9,110.27Zm-.05-13.62.42-.19.29-.11.42-.17.29-.11.42-.15.29-.1.41-.13.3-.09.42-.11.31-.08.15,0a19.42,19.42,0,0,1,1.65,2.09,21.69,21.69,0,0,1,3,6.09,22.24,22.24,0,0,1,1,6.72c0,.51,0,1-.06,1.52a21.84,21.84,0,0,1-1.17,5.77l-.11.11a13.81,13.81,0,0,0-3.31,6.23,22.62,22.62,0,0,1-4.86,4.66,19,19,0,0,0-2.08.74,11.76,11.76,0,0,0-3.56,2.15,22.42,22.42,0,0,1-7.22,1.21v-4.08c.6,0,1.2,0,1.8-.1s1.18-.15,1.77-.27a20.39,20.39,0,0,0,3.43-1.05c.55-.24,1.09-.49,1.62-.78s1-.59,1.54-.92,1-.7,1.44-1.07.9-.79,1.32-1.21a15,15,0,0,0,1.2-1.33,16.78,16.78,0,0,0,1.07-1.44c.34-.5.64-1,.93-1.54a17.16,17.16,0,0,0,.76-1.62c.23-.55.43-1.11.61-1.68s.32-1.15.44-1.74.2-1.17.26-1.77a18.2,18.2,0,0,0-1.43-9.1,18.2,18.2,0,0,0-1.85-3.27,17.46,17.46,0,0,0-2.47-2.82l.22-.11Zm10.92,17.09c.36.33.73.63,1.1.92a12.92,12.92,0,0,0-1.42.88C107.58,114.94,107.7,114.34,107.77,113.74Zm16.07,4.43a12.27,12.27,0,0,1,3.81,7.44v3.15a12.19,12.19,0,0,1-1.8,5,12,12,0,0,1-3.76,3.78v-3.86a9.25,9.25,0,0,0,2.64-6.49,9.24,9.24,0,0,0-.42-2.76,9.3,9.3,0,0,0-5.56-5.94c.46,0,.93,0,1.4,0A18.34,18.34,0,0,0,123.84,118.17ZM89.47,145.05H83.92v-5.13h5.55Zm7.81-14.82H98V130a32.83,32.83,0,0,1,8.32-1c5,0,9.77,1,12.59,2.65l-15.66,2.76,11.83,5a32.39,32.39,0,0,1-8.76,1.11,29.72,29.72,0,0,1-11-1.87c-2.64-1.09-4.15-2.51-4.15-3.88s1.52-2.78,4.16-3.87A18,18,0,0,1,97.28,130.23Zm3.25-2.5.73-.72v.61Zm7.24-.55a6.49,6.49,0,0,1,0-.88,8.5,8.5,0,0,1,.15-.88c.07-.28.16-.57.26-.85a7.17,7.17,0,0,1,.36-.81A6.71,6.71,0,0,1,109,123a8.72,8.72,0,0,1,.53-.71,7.47,7.47,0,0,1,.62-.64,7.59,7.59,0,0,1,.68-.57c.24-.17.49-.33.74-.48a6.55,6.55,0,0,1,.8-.39,7,7,0,0,1,.84-.3c.29-.08.58-.15.87-.2a8.65,8.65,0,0,1,.89-.09,6.46,6.46,0,0,1,.88,0,6.22,6.22,0,0,1,.88.11,6.13,6.13,0,0,1,.87.21c.28.09.56.2.83.31a7.37,7.37,0,0,1,.79.41c.26.16.5.32.74.5a6.19,6.19,0,0,1,.67.58,5.25,5.25,0,0,1,.6.65,6.83,6.83,0,0,1,1,1.5,8.33,8.33,0,0,1,.34.82,6.46,6.46,0,0,1,.24.86,8.3,8.3,0,0,1,.14.87,8.83,8.83,0,0,1,0,.89,8.69,8.69,0,0,1-.07.88,6.54,6.54,0,0,1-.18.88,6.82,6.82,0,0,1-.27.84,7.43,7.43,0,0,1-.37.81,6.68,6.68,0,0,1-.46.76l-.24-.25h0a10.77,10.77,0,0,0-2-1.33,4.79,4.79,0,0,0,.81-2.09,5.36,5.36,0,0,0,0-1.13,4.51,4.51,0,0,0-.25-1.1,4.35,4.35,0,0,0-.49-1,5,5,0,0,0-.71-.88,5.32,5.32,0,0,0-.9-.68,4.4,4.4,0,0,0-1-.46,4.63,4.63,0,0,0-1.11-.21,5.32,5.32,0,0,0-1.13.06,4.56,4.56,0,0,0-1.09.32,4.73,4.73,0,0,0-1,.55,4.64,4.64,0,0,0-1.45,1.72,5,5,0,0,0-.39,1.06,4.64,4.64,0,0,0-.13,1.12v.32c-.9-.09-1.83-.16-2.77-.2A.45.45,0,0,0,107.77,127.18Zm8,10.63-6.35-2.69,10.93-1.92v3.71Zm-3.44-10.06a2.69,2.69,0,0,1-.06-.57,3.12,3.12,0,0,1,.09-.74,3.38,3.38,0,0,1,.26-.69,3.75,3.75,0,0,1,.42-.62,2.63,2.63,0,0,1,.56-.49,3.72,3.72,0,0,1,.65-.36,3.79,3.79,0,0,1,.72-.18,3.14,3.14,0,0,1,.75,0,3.08,3.08,0,0,1,.73.16,3.44,3.44,0,0,1,.66.34,3.87,3.87,0,0,1,.57.49,3.2,3.2,0,0,1,.43.61,2.91,2.91,0,0,1,.27.69,3.07,3.07,0,0,1,.1.74,2.67,2.67,0,0,1-.08.74,3.09,3.09,0,0,1-.25.7,3.17,3.17,0,0,1-.41.62A26.19,26.19,0,0,0,112.33,127.75Zm-22.86,7v3.4H83.92v-3.8a23.8,23.8,0,0,0,5.71-.69,3.64,3.64,0,0,0-.16,1.09Zm1.75,3.4a11.83,11.83,0,0,0,3.48,2.08,31.36,31.36,0,0,0,11.66,2,33.37,33.37,0,0,0,10.33-1.51v3.41a30.91,30.91,0,0,1-10.33,1.61,29.66,29.66,0,0,1-11-1.87c-2.64-1.09-4.15-2.5-4.15-3.88Zm27.21.88,1.92-.37v4.07l-1.92.37ZM106,127.18v.11c-1,0-2,0-3,.14v-.25a12.16,12.16,0,0,1,.89-4.61,12.3,12.3,0,0,1,2.57-3.95l.12-.12a12.21,12.21,0,0,1,4-2.67,18.12,18.12,0,0,0,4.66,2,9,9,0,0,0-1.79.21,10.14,10.14,0,0,0-1.72.55,9.42,9.42,0,0,0-1.59.87,9.53,9.53,0,0,0-1.38,1.16,9,9,0,0,0-1.14,1.4,9.72,9.72,0,0,0-.85,1.59,9.56,9.56,0,0,0-.52,1.73A9,9,0,0,0,106,127.18Zm-22.1,19.61h5.65c.42,1.79,2.16,3.4,5,4.6H83.92Zm11.45,3.05c-2.64-1.1-4.15-2.51-4.15-3.89v-2.51a12.05,12.05,0,0,0,3.48,2.08,31.36,31.36,0,0,0,11.66,2A33,33,0,0,0,116.69,146v4.07a30.9,30.9,0,0,1-10.33,1.62A29.67,29.67,0,0,1,95.37,149.84Zm23.07,1.44v-4.49h9.21v4.6h-9.51Zm0-6.23v-.14l3.66-.71v-4.28h5.55v5.13Zm9.21-6.86H124.2a13.94,13.94,0,0,0,3.45-4Zm-1.88-20.53c.64-.21,1.27-.45,1.88-.72v3.28A13.38,13.38,0,0,0,125.77,117.66ZM110,95.15l1,.22.16,0,.93.26.18,0,.92.29.08,0a8.25,8.25,0,0,0-1,2.59,8.24,8.24,0,0,0-.08,2.8,7.17,7.17,0,0,0,.32,1.37,9.15,9.15,0,0,0,.56,1.29,8.28,8.28,0,0,0,.79,1.17,6.62,6.62,0,0,0,1,1,7.7,7.7,0,0,0,1.13.84,8.77,8.77,0,0,0,1.27.62,8,8,0,0,0,1.35.39,9.36,9.36,0,0,0,1.4.15,8.37,8.37,0,0,0,1.41-.11,7.12,7.12,0,0,0,1.36-.34,7.44,7.44,0,0,0,1.29-.57,7.71,7.71,0,0,0,1.16-.8l0,.07c.15.3.3.59.43.88l.08.17c.13.29.26.58.38.88a.78.78,0,0,0,.05.14c.12.32.24.63.35,1a10.93,10.93,0,0,1-6.36,2,11.33,11.33,0,0,1-4.21-.82,12.8,12.8,0,0,1-1.3-.61,13.86,13.86,0,0,1-1.21-.78,12.15,12.15,0,0,1-1.09-.93,10.78,10.78,0,0,1-1-1,11.47,11.47,0,0,1-1.51-2.44,10.86,10.86,0,0,1-.51-1.34,11.79,11.79,0,0,1-.49-2.82,11.42,11.42,0,0,1,.24-2.86,13.44,13.44,0,0,1,.38-1.38A12.74,12.74,0,0,1,110,95.15Zm12,6.79.11.12c.23.26.47.54.69.81l.12.16c.22.27.43.55.64.84l.09.14c.21.29.42.6.62.91a6.52,6.52,0,0,1-1.51,1,6.26,6.26,0,0,1-1.71.51,6.39,6.39,0,0,1-1.8,0,6.16,6.16,0,0,1-1.72-.5,6.44,6.44,0,0,1-1.51-1,6.09,6.09,0,0,1-1.18-1.35,6.89,6.89,0,0,1-.75-1.63,6.52,6.52,0,0,1-.25-1.77,6,6,0,0,1,1.06-3.48l.18.09.4.19.51.26.39.21.5.29.37.23.49.31.36.24.49.34.34.25.48.38.31.25c.18.14.35.29.52.44l.25.23c.25.22.5.46.74.7A9.7,9.7,0,0,1,122,101.94Zm-13.79-7.06a13.82,13.82,0,0,0-.58,1.51,13,13,0,0,0-.56,3.2c0,.53,0,1.08,0,1.62a14.33,14.33,0,0,0,.23,1.6,12.45,12.45,0,0,0,1,3.07,13.15,13.15,0,0,0,.79,1.42,12.83,12.83,0,0,0,3.35,3.5,11,11,0,0,0,1.38.86,14,14,0,0,0,1.47.69,14.7,14.7,0,0,0,1.55.5,13.15,13.15,0,0,0,3.22.4,12.63,12.63,0,0,0,6.87-2,21.46,21.46,0,0,1,.59,3.73,15.83,15.83,0,0,1-3.71,1.34,16.61,16.61,0,0,1-12.8-2.25L111,114a16.71,16.71,0,0,1-3-2.53c0-.41,0-.83,0-1.25A23.78,23.78,0,0,0,107,103.2a23.4,23.4,0,0,0-3.09-6.43,15,15,0,0,1,.55-2,23,23,0,0,1,3.8.1Zm-24.31,62.9v-4.65h17.47a38.3,38.3,0,0,0,9.92,0h16.34v4.65Z" transform="translate(-82.17 -93)" style="fill:#af7a4a"/></g><path d="M123.41,168.39a1.69,1.69,0,0,1,1.24-.48,1.71,1.71,0,0,1,1.25.48,1.68,1.68,0,0,1,.5,1.24,1.74,1.74,0,0,1-.5,1.28,1.71,1.71,0,0,1-1.25.48,1.69,1.69,0,0,1-1.24-.48,1.77,1.77,0,0,1-.48-1.28A1.7,1.7,0,0,1,123.41,168.39Z" transform="translate(-82.17 -93)"/><path d="M134.59,163.77h4.22a4.31,4.31,0,0,1,2.88.87,3.1,3.1,0,0,1,1,2.5,3.4,3.4,0,0,1-1,2.65,4.12,4.12,0,0,1-2.88.93h-1.75v2.74h-2.47Zm2.47,1.94v3.08h1.63a1.78,1.78,0,0,0,1.26-.4,1.52,1.52,0,0,0,.44-1.17,1.4,1.4,0,0,0-.44-1.12,1.83,1.83,0,0,0-1.26-.39Z" transform="translate(-82.17 -93)"/><path d="M152.19,171.68H148l-.7,1.78h-2.53l4.17-9.69h2.53l4.1,9.69h-2.64Zm-.72-1.88-1.39-3.58-1.41,3.58Z" transform="translate(-82.17 -93)"/><path d="M161.87,163.66a6.87,6.87,0,0,1,3.83,1.08l-.92,1.92a9.26,9.26,0,0,0-1.64-.72,5.09,5.09,0,0,0-1.47-.3c-.71,0-1.07.24-1.07.71a.86.86,0,0,0,.52.75,6.93,6.93,0,0,0,1.28.47,14.07,14.07,0,0,1,1.52.48,3.14,3.14,0,0,1,1.28.92,2.48,2.48,0,0,1,.53,1.61,2.53,2.53,0,0,1-1.09,2.17,4.63,4.63,0,0,1-2.79.79,7.37,7.37,0,0,1-2.39-.41,6.74,6.74,0,0,1-2-1.14l1-1.89a6.58,6.58,0,0,0,1.73,1,4.66,4.66,0,0,0,1.77.41,1.63,1.63,0,0,0,.92-.22.69.69,0,0,0,.35-.62.8.8,0,0,0-.39-.67,2.38,2.38,0,0,0-.94-.41c-.38-.08-.79-.2-1.24-.34s-.85-.32-1.23-.49a2.32,2.32,0,0,1-1-.84,2.67,2.67,0,0,1,.68-3.5A4.56,4.56,0,0,1,161.87,163.66Z" transform="translate(-82.17 -93)"/><path d="M176.22,165.74h-2.93v7.72h-2.46v-7.72h-2.89v-2h8.28Z" transform="translate(-82.17 -93)"/><path d="M181.48,173.46H179v-9.69h2.47Z" transform="translate(-82.17 -93)"/><path d="M189.7,163.68a5.36,5.36,0,0,1,2.13.45,5.21,5.21,0,0,1,1.76,1.19L192.17,167a3.68,3.68,0,0,0-1.12-.92,2.94,2.94,0,0,0-1.32-.34,2.56,2.56,0,0,0-1.92.81,2.8,2.8,0,0,0-.76,2,2.91,2.91,0,0,0,.76,2,2.56,2.56,0,0,0,1.92.81,3.05,3.05,0,0,0,1.27-.3,3.87,3.87,0,0,0,1.17-.84l1.44,1.53a6,6,0,0,1-1.86,1.28,5.19,5.19,0,0,1-5.78-.94,4.75,4.75,0,0,1-1.45-3.56,4.63,4.63,0,0,1,1.48-3.5A5.15,5.15,0,0,1,189.7,163.68Z" transform="translate(-82.17 -93)"/><path d="M201,163.68a5.35,5.35,0,0,1,2.12.45,5.16,5.16,0,0,1,1.77,1.19L203.49,167a3.57,3.57,0,0,0-1.12-.92,2.94,2.94,0,0,0-1.31-.34,2.57,2.57,0,0,0-1.93.81,2.8,2.8,0,0,0-.76,2,2.91,2.91,0,0,0,.76,2,2.57,2.57,0,0,0,1.93.81,3,3,0,0,0,1.26-.3,3.87,3.87,0,0,0,1.17-.84l1.44,1.53a6,6,0,0,1-1.86,1.28,5.19,5.19,0,0,1-5.78-.94,4.75,4.75,0,0,1-1.45-3.56,4.63,4.63,0,0,1,1.48-3.5A5.16,5.16,0,0,1,201,163.68Z" transform="translate(-82.17 -93)"/><path d="M215.39,165.71h-5.12v1.92h4.62v1.94h-4.62v2h5.26v1.94H207.8v-9.69h7.59Z" transform="translate(-82.17 -93)"/><path d="M224.72,173.46l-1.44-2.74h-1.94v2.74h-2.47v-9.69h4.33a4.53,4.53,0,0,1,3,.87,3.06,3.06,0,0,1,1.06,2.5,3.15,3.15,0,0,1-1.75,3.11l2,3.21Zm-3.38-4.67h1.86a1.77,1.77,0,0,0,1.25-.4,1.52,1.52,0,0,0,.44-1.17,1.4,1.4,0,0,0-.44-1.12,1.82,1.82,0,0,0-1.25-.39h-1.86Z" transform="translate(-82.17 -93)"/><path d="M233.11,173.46h-2.47v-9.69h2.47Z" transform="translate(-82.17 -93)"/><path d="M243.22,171.68H239l-.7,1.78h-2.54l4.18-9.69h2.53l4.09,9.69h-2.64Zm-.72-1.88-1.39-3.58-1.4,3.58Z" transform="translate(-82.17 -93)"/><path d="M249.23,168.39a1.69,1.69,0,0,1,1.24-.48,1.71,1.71,0,0,1,1.25.48,1.68,1.68,0,0,1,.5,1.24,1.74,1.74,0,0,1-.5,1.28,1.71,1.71,0,0,1-1.25.48,1.69,1.69,0,0,1-1.24-.48,1.77,1.77,0,0,1-.48-1.28A1.7,1.7,0,0,1,249.23,168.39Z" transform="translate(-82.17 -93)"/><path d="M137.27,105h6a7.54,7.54,0,0,1,5.36,1.94,7.16,7.16,0,0,1,0,10.11,7.67,7.67,0,0,1-5.46,2h-5.88Zm3.55,2.85v8.31h2.54a3.48,3.48,0,0,0,2.69-1.14,4.72,4.72,0,0,0-.05-6,3.65,3.65,0,0,0-2.79-1.17Z" transform="translate(-82.17 -93)"/><path d="M161.76,104.83a7.6,7.6,0,0,1,5.41,2,6.65,6.65,0,0,1,2.17,5.08,6.76,6.76,0,0,1-2.17,5.12,7.59,7.59,0,0,1-5.42,2,7.5,7.5,0,0,1-5.39-2,6.75,6.75,0,0,1-2.16-5.12,6.65,6.65,0,0,1,2.16-5.08A7.59,7.59,0,0,1,161.76,104.83Zm0,3A3.76,3.76,0,0,0,159,109a4.07,4.07,0,0,0-1.16,3,4.2,4.2,0,0,0,1.16,3,3.77,3.77,0,0,0,2.8,1.2,3.63,3.63,0,0,0,2.75-1.2,4.26,4.26,0,0,0,1.12-3,4.12,4.12,0,0,0-1.12-3A3.66,3.66,0,0,0,161.8,107.81Z" transform="translate(-82.17 -93)"/><path d="M177.28,116h6v3h-9.5V105h3.54Z" transform="translate(-82.17 -93)"/><path d="M194,104.83a8.11,8.11,0,0,1,5.64,2.36l-2,2.45a5.14,5.14,0,0,0-1.64-1.33,4,4,0,0,0-1.89-.5,3.71,3.71,0,0,0-2.78,1.17,4.07,4.07,0,0,0-1.11,2.89,4.17,4.17,0,0,0,1.11,3,3.71,3.71,0,0,0,2.78,1.17,4.16,4.16,0,0,0,1.83-.44,6.1,6.1,0,0,0,1.7-1.2l2.08,2.19a8.76,8.76,0,0,1-2.7,1.87,7.51,7.51,0,0,1-3.08.69,7.22,7.22,0,0,1-5.26-2,6.91,6.91,0,0,1-2.1-5.15,6.66,6.66,0,0,1,2.14-5A7.47,7.47,0,0,1,194,104.83Z" transform="translate(-82.17 -93)"/><path d="M214.76,107.75h-7.41v2.78H214v2.8h-6.69v2.83H215V119H203.81V105h10.95Z" transform="translate(-82.17 -93)"/><path d="M137.27,132.7h6.09a6.16,6.16,0,0,1,4.16,1.28,4.48,4.48,0,0,1,1.48,3.6,4.93,4.93,0,0,1-1.48,3.83,5.94,5.94,0,0,1-4.16,1.36h-2.54v3.93h-3.55Zm3.55,2.8V140h2.36a2.6,2.6,0,0,0,1.82-.58,2.18,2.18,0,0,0,.65-1.69,2.07,2.07,0,0,0-.65-1.64,2.7,2.7,0,0,0-1.82-.56Z" transform="translate(-82.17 -93)"/><path d="M161.82,146.7l-2.08-3.93h-2.81v3.93h-3.54v-14h6.25a6.48,6.48,0,0,1,4.29,1.28,4.43,4.43,0,0,1,1.53,3.6,4.57,4.57,0,0,1-2.54,4.5l2.93,4.62ZM156.93,140h2.71a2.57,2.57,0,0,0,1.79-.58,2.17,2.17,0,0,0,.64-1.69,2.06,2.06,0,0,0-.64-1.64,2.66,2.66,0,0,0-1.79-.56h-2.71Z" transform="translate(-82.17 -93)"/><path d="M177,132.58a7.62,7.62,0,0,1,5.41,2,6.69,6.69,0,0,1,2.17,5.08,6.79,6.79,0,0,1-2.17,5.12,7.59,7.59,0,0,1-5.43,2.05,7.52,7.52,0,0,1-5.39-2.05,6.78,6.78,0,0,1-2.15-5.12,6.68,6.68,0,0,1,2.15-5.08A7.6,7.6,0,0,1,177,132.58Zm0,3a3.78,3.78,0,0,0-2.8,1.19,4.07,4.07,0,0,0-1.15,2.95,4.19,4.19,0,0,0,1.15,3,3.78,3.78,0,0,0,2.8,1.2,3.63,3.63,0,0,0,2.75-1.2,4.26,4.26,0,0,0,1.13-3,4.13,4.13,0,0,0-1.13-2.95A3.66,3.66,0,0,0,177.05,135.56Z" transform="translate(-82.17 -93)"/><path d="M199.37,135.5h-6.83v3.25h6.28v2.8h-6.28v5.15H189v-14h10.38Z" transform="translate(-82.17 -93)"/><path d="M216.18,132.7v8.13a5.75,5.75,0,0,1-1.72,4.4,6.48,6.48,0,0,1-4.65,1.63,6.62,6.62,0,0,1-4.72-1.63,5.7,5.7,0,0,1-1.75-4.4V132.7h3.56v8.13a3.07,3.07,0,0,0,.81,2.23,2.8,2.8,0,0,0,2.11.83,2.7,2.7,0,0,0,2.05-.81,3.18,3.18,0,0,0,.76-2.25V132.7Z" transform="translate(-82.17 -93)"/><path d="M236.64,146.7H233.5l0-9.09-3.36,7.69h-2.33l-3.36-7.69v9.09h-3.17v-14h3.89L229,141l3.81-8.33h3.88Z" transform="translate(-82.17 -93)"/><path d="M251.27,144.12h-6.12l-1,2.58h-3.65l6-14h3.65l5.91,14h-3.8Zm-1-2.7-2-5.17-2,5.17Z" transform="translate(-82.17 -93)"/><path d="M270.58,135.56h-4.22V146.7H262.8V135.56h-4.18v-2.87h12Z" transform="translate(-82.17 -93)"/><path d="M283.92,144.12H277.8l-1,2.58h-3.66l6-14h3.65l5.91,14h-3.8Zm-1.05-2.7-2-5.17-2,5.17Z" transform="translate(-82.17 -93)"/><path d="M84,169.71h32.3" transform="translate(-82.17 -93)" style="fill:none;stroke:#af7a4a;stroke-linecap:round"/><path d="M258.44,169.71h32.3" transform="translate(-82.17 -93)" style="fill:none;stroke:#af7a4a;stroke-linecap:round"/></svg>